<svg viewBox="0 0 800 800" xmlns="http://www.w3.org/2000/svg"><path d="M476.5319618528566,274.60433504632795 L476.5319618528566,263.396424554163 M612.9734765121707,351.24983850089626 L613.2469064012676,339.8835714555294 M476.5319618528566,274.60433504632795 L612.9734765121707,351.24983850089626 M476.5319618528566,263.396424554163 L613.2469064012676,339.8835714555294 M742.0397741628731,274.60433504632795 L742.5574453740496,263.396424554163 M612.9734765121707,351.24983850089626 L742.0397741628731,274.60433504632795 M613.2469064012676,339.8835714555294 L742.5574453740496,263.396424554163 M605.7923441616804,201.99280545778947 L606.0377234995374,190.94255897010117 M742.0397741628731,274.60433504632795 L605.7923441616804,201.99280545778947 M742.5574453740496,263.396424554163 L606.0377234995374,190.94255897010117 M605.7923441616804,201.99280545778947 L476.5319618528566,274.60433504632795 M606.0377234995374,190.94255897010117 L476.5319618528566,263.396424554163" stroke="black"  stroke-width="4"  fill="red"/>
<path d="M476.5319618528566,274.60433504632795 L476.5319618528566,263.396424554163 M340.0904471935426,351.24983850089626 L339.81701730444576,339.8835714555294 M476.5319618528566,274.60433504632795 L340.0904471935426,351.24983850089626 M476.5319618528566,263.396424554163 L339.81701730444576,339.8835714555294 M476.5319618528566,432.2750850100114 L476.5319618528566,420.75042214190313 M340.0904471935426,351.24983850089626 L476.5319618528566,432.2750850100114 M339.81701730444576,339.8835714555294 L476.5319618528566,420.75042214190313 M612.9734765121707,351.24983850089626 L613.2469064012676,339.8835714555294 M476.5319618528566,432.2750850100114 L612.9734765121707,351.24983850089626 M476.5319618528566,420.75042214190313 L613.2469064012676,339.8835714555294 M612.9734765121707,351.24983850089626 L476.5319618528566,274.60433504632795 M613.2469064012676,339.8835714555294 L476.5319618528566,263.396424554163" stroke="black"  stroke-width="4"  fill="red"/>
<path d="M195.85227455369636,432.2750850100114 L195.27368610072048,420.75042214190313 M332.0644757429948,518.0665224902509 L331.75789536690684,506.38424115451915 M195.85227455369636,432.2750850100114 L332.0644757429948,518.0665224902509 M195.27368610072048,420.75042214190313 L331.75789536690684,506.38424115451915 M476.5319618528566,432.2750850100114 L476.5319618528566,420.75042214190313 M332.0644757429948,518.0665224902509 L476.5319618528566,432.2750850100114 M331.75789536690684,506.38424115451915 L476.5319618528566,420.75042214190313 M340.0904471935426,351.24983850089626 L339.81701730444576,339.8835714555294 M476.5319618528566,432.2750850100114 L340.0904471935426,351.24983850089626 M476.5319618528566,420.75042214190313 L339.81701730444576,339.8835714555294 M340.0904471935426,351.24983850089626 L195.85227455369636,432.2750850100114 M339.81701730444576,339.8835714555294 L195.27368610072048,420.75042214190313" stroke="black"  stroke-width="4"  fill="red"/>
<path d="M195.85227455369636,432.2750850100114 L195.27368610072048,420.75042214190313 M43.12950352327084,518.0665224902509 L42.20976239500726,506.38424115451915 M195.85227455369636,432.2750850100114 L43.12950352327084,518.0665224902509 M195.27368610072048,420.75042214190313 L42.20976239500726,506.38424115451915 M178.84138441435323,609.0574410298989 L178.19045749575594,597.2193368321387 M43.12950352327084,518.0665224902509 L178.84138441435323,609.0574410298989 M42.20976239500726,506.38424115451915 L178.19045749575594,597.2193368321387 M332.0644757429948,518.0665224902509 L331.75789536690684,506.38424115451915 M178.84138441435323,609.0574410298989 L332.0644757429948,518.0665224902509 M178.19045749575594,597.2193368321387 L331.75789536690684,506.38424115451915 M332.0644757429948,518.0665224902509 L195.85227455369636,432.2750850100114 M331.75789536690684,506.38424115451915 L195.27368610072048,420.75042214190313" stroke="black"  stroke-width="4"  fill="red"/>
<path d="M612.9734765121707,351.24983850089626 L613.2469064012676,339.8835714555294 M476.5319618528566,432.2750850100114 L476.5319618528566,420.75042214190313 M612.9734765121707,351.24983850089626 L476.5319618528566,432.2750850100114 M613.2469064012676,339.8835714555294 L476.5319618528566,420.75042214190313 M620.9994479627187,518.0665224902509 L621.3060283388065,506.38424115451926 M476.5319618528566,432.2750850100114 L620.9994479627187,518.0665224902509 M476.5319618528566,420.75042214190313 L621.3060283388065,506.38424115451926 M757.2116491520169,432.2750850100114 L757.7902376049929,420.7504221419032 M620.9994479627187,518.0665224902509 L757.2116491520169,432.2750850100114 M621.3060283388065,506.38424115451926 L757.7902376049929,420.7504221419032 M757.2116491520169,432.2750850100114 L612.9734765121707,351.24983850089626 M757.7902376049929,420.7504221419032 L613.2469064012676,339.8835714555294" stroke="black"  stroke-width="4"  fill="red"/>
<path d="M347.2715795440328,201.99280545778947 L347.02620020617593,190.94255897010106 M211.02414954284012,274.60433504632795 L210.50647833166377,263.3964245541629 M347.2715795440328,201.99280545778947 L211.02414954284012,274.60433504632795 M347.02620020617593,190.94255897010106 L210.50647833166377,263.3964245541629 M340.0904471935426,351.24983850089626 L339.81701730444576,339.8835714555294 M211.02414954284012,274.60433504632795 L340.0904471935426,351.24983850089626 M210.50647833166377,263.3964245541629 L339.81701730444576,339.8835714555294 M476.5319618528566,274.60433504632795 L476.5319618528566,263.396424554163 M340.0904471935426,351.24983850089626 L476.5319618528566,274.60433504632795 M339.81701730444576,339.8835714555294 L476.5319618528566,263.396424554163 M476.5319618528566,274.60433504632795 L347.2715795440328,201.99280545778947 M476.5319618528566,263.396424554163 L347.02620020617593,190.94255897010106" stroke="black"  stroke-width="4"  fill="red"/></svg>